<svg xmlns="http://www.w3.org/2000/svg" xmlns:xlink="http://www.w3.org/1999/xlink" version="1.1" x="0px" y="0px" viewBox="0 0 100 125" enable-background="new 0 0 100 100" xml:space="preserve"><g><path d="M21.366,44.286l1.863,14.906l18.492-0.229L40.088,44.97L21.366,44.286z M32.577,53.408   c-1.032,0.221-2.108-0.641-2.378-1.893c-0.137-0.632-0.056-1.264,0.225-1.785c0.264-0.487,0.676-0.814,1.16-0.919l0.335-0.037   c0.943,0,1.802,0.812,2.043,1.928C34.236,51.971,33.615,53.184,32.577,53.408z"/><path d="M83.926,50.46l-0.275,0.077c-3.2,0.916-4.307,7.085-4.648,9.9l-21.326,2.455v-3.277l5.302-4.84l0.432-1.512l7.845-7.638   l5.771-8.941l-1.064-5.529l2.39-3.691l-1.748-5.495l-0.172-0.197c-0.896-1.024-2.988-2.199-11.293-2.199   c-7.187,0-15.454,0.918-15.537,0.927L5.414,40.146l-1.311,2.62l7.682,18.246l3.018-2.451c0.848,3.232,2.851,5.42,2.953,5.531   l0.357,0.385l26.314,0.791l0.889,7.471l0.291,0.303c1.971,2.059,4.106,2.777,6.07,2.777c2.322,0,4.406-1.006,5.701-1.99   l22.267-1.293c0.441,3.211,2.478,5.711,2.574,5.816l0.226,0.449l11.303,3.596l0.235-30.219L83.926,50.46z M74.37,36.173   l-4.971,7.755l-8.222,8.005l-0.419,1.469l-4.345,3.967l-4.458,0.637l-2.605,2.305c-2.191-8.873-4.393-14.936-6.58-18.123   l31.984-17.749l0.845,2.655l-2.294,3.543L74.37,36.173z M50.072,22.974c1.271-0.136,8.623-0.891,15.065-0.891   c3.967,0,6.27,0.287,7.609,0.599L41.05,40.271c-0.33-0.253-0.658-0.455-0.986-0.576c-0.647-0.236-1.225-0.202-1.658-0.052   L12.32,39.815L50.072,22.974z M6.866,42.857l0.249-0.497l6.931-0.045l0.38,13.318l-1.624,1.318L6.866,42.857z M16.952,56.154   l-0.396-13.857l22.537-0.147l0.123-0.091c0.624,0.242,3.752,2.335,8.011,20.128l-0.711,0.631l-27.237-0.82   C18.607,61.139,17.098,58.918,16.952,56.154z M56.413,71.371l-0.321,0.271c-0.183,0.158-4.435,3.693-8.383-0.049l-0.744-6.25   l0.468,0.014l5.623-4.975l2.109-0.301v5.627l28.722-3.307c0.817,0.527,3.06,2.479,1.42,7.289L56.413,71.371z M91.265,78.871   l-7.388-2.451c-0.433-0.559-1.447-2.043-1.734-4.029l4.924-0.287l0.297-0.74C90.744,62.91,84.735,60,84.674,59.971l-0.321-0.148   l-2.776,0.32c0.47-3.184,1.507-6.475,2.563-7.123l7.316,1.225L91.265,78.871z"/></g></svg>